<svg width="15" height="10" viewBox="0 0 15 10" xmlns="http://www.w3.org/2000/svg">
<path d="M5.43161 7.39274L1.95254 4.15842C1.73954 3.9604 1.4792 3.86139 1.17152 3.86139C0.863851 3.86139 0.591679 3.9714 0.355008 4.19142C0.118336 4.41144 0 4.66447 0 4.9505C0 5.23652 0.118336 5.47855 0.355008 5.67657L4.6861 9.70297C4.8991 9.90099 5.14761 10 5.43161 10C5.71562 10 5.96413 9.90099 6.17713 9.70297L14.6973 1.78218C14.9103 1.58416 15.0109 1.34213 14.9991 1.05611C14.9872 0.770077 14.8748 0.528053 14.6618 0.330033C14.4488 0.110011 14.1825 0 13.863 0C13.5435 0 13.2654 0.110011 13.0288 0.330033L5.43161 7.39274Z" />
</svg>
