<svg width="26" height="23" viewBox="0 0 26 23" xmlns="http://www.w3.org/2000/svg">
<path d="M0.476315 22.3C0.176315 22 0.0263154 21.65 0.0263154 21.25C0.0263154 20.85 0.176315 20.5 0.476315 20.2L9.32631 11.35L0.426315 2.5C0.126315 2.2 -0.0153509 1.85833 0.0013158 1.475C0.0179825 1.09167 0.176315 0.75 0.476315 0.45C0.776315 0.15 1.12632 0 1.52632 0C1.92632 0 2.27632 0.15 2.57632 0.45L12.4263 10.3C12.593 10.4667 12.7096 10.6333 12.7763 10.8C12.843 10.9667 12.8763 11.15 12.8763 11.35C12.8763 11.55 12.843 11.7417 12.7763 11.925C12.7096 12.1083 12.593 12.2833 12.4263 12.45L2.52632 22.35C2.22632 22.65 1.88465 22.7917 1.50132 22.775C1.11798 22.7583 0.776315 22.6 0.476315 22.3V22.3ZM13.1263 22.3C12.8263 22 12.6763 21.65 12.6763 21.25C12.6763 20.85 12.8263 20.5 13.1263 20.2L21.9763 11.35L13.0763 2.5C12.7763 2.2 12.6346 1.85833 12.6513 1.475C12.668 1.09167 12.8263 0.75 13.1263 0.45C13.4263 0.15 13.7763 0 14.1763 0C14.5763 0 14.9263 0.15 15.2263 0.45L25.0763 10.3C25.243 10.4667 25.3597 10.6333 25.4263 10.8C25.493 10.9667 25.5263 11.15 25.5263 11.35C25.5263 11.55 25.493 11.7417 25.4263 11.925C25.3597 12.1083 25.243 12.2833 25.0763 12.45L15.1763 22.35C14.8763 22.65 14.5346 22.7917 14.1513 22.775C13.768 22.7583 13.4263 22.6 13.1263 22.3V22.3Z" />
</svg>
