<svg width="350" height="103" viewBox="0 0 350 103" fill="none" xmlns="http://www.w3.org/2000/svg">
<path d="M291.125 70.266L288.648 74.5773L302.284 74.5474L295.44 62.753L293.019 66.9671C288.611 64.0792 284.893 60.2013 282.203 55.6546C279.084 50.3832 277.436 44.3384 277.436 38.1778C277.436 37.128 276.585 36.2799 275.538 36.2799C274.492 36.2799 273.641 37.1317 273.641 38.1778C273.641 45.0184 275.471 51.7319 278.938 57.5899C281.961 62.7007 286.152 67.0493 291.129 70.266H291.125Z" fill="#D9D9D9"/>
<path d="M343.91 58.8713L348.222 61.3482L348.192 47.712L336.397 54.5563L340.612 56.9772C337.724 61.3856 333.846 65.1029 329.299 67.7928C324.028 70.9123 317.983 72.5599 311.822 72.5599C310.772 72.5599 309.924 73.4117 309.924 74.4577C309.924 75.5038 310.776 76.3556 311.822 76.3556C318.663 76.3556 325.376 74.525 331.234 71.058C336.345 68.0356 340.694 63.8439 343.91 58.8676V58.8713Z" fill="#D9D9D9"/>
<path d="M350 38.1741C350 31.3335 348.169 24.62 344.702 18.762C341.68 13.6512 337.488 9.30256 332.512 6.0859L334.989 1.7746L321.353 1.80448L328.197 13.5989L330.618 9.38475C335.026 12.2727 338.744 16.1506 341.433 20.6973C344.553 25.9687 346.201 32.0135 346.201 38.1741C346.201 39.2239 347.052 40.072 348.098 40.072C349.145 40.072 349.996 39.2202 349.996 38.1741H350Z" fill="#D9D9D9"/>
<path d="M294.345 8.56283C299.617 5.4433 305.662 3.79574 311.822 3.79574C312.872 3.79574 313.72 2.94394 313.72 1.89787C313.72 0.8518 312.868 0 311.822 0C304.982 0 298.268 1.83062 292.41 5.2976C287.299 8.31999 282.951 12.5117 279.734 17.488L275.423 15.0111L275.453 28.6474L287.247 21.8031L283.033 19.3822C285.921 14.9737 289.799 11.2565 294.345 8.56656V8.56283Z" fill="#D9D9D9"/>
<path d="M195.753 86.9209C192.794 86.9209 190.523 86.1812 188.939 84.7018C187.355 83.2223 186.563 81.1638 186.563 78.5225V50.3122H178.004V47.1441H186.563V41.0209L190.048 39.9113V47.1441H202.093V50.3122H190.048V77.3344C190.048 79.5536 190.523 81.1638 191.476 82.1688C192.481 83.1214 194.117 83.5959 196.388 83.5959C197.603 83.5959 198.634 83.5175 199.478 83.3568C200.322 83.1439 201.197 82.8562 202.093 82.4863V85.8935C201.088 86.2634 200.061 86.5286 199.004 86.6856C197.946 86.8425 196.863 86.9247 195.753 86.9247V86.9209ZM156.896 86.0504V47.0619H160.381V53.2412C161.491 51.0744 162.996 49.3857 164.898 48.1715C166.852 46.905 169.045 46.2699 171.477 46.2699C172.534 46.2699 173.67 46.3745 174.884 46.5875V50.1516C174.301 49.9386 173.722 49.8079 173.139 49.7556C172.557 49.651 172.004 49.5987 171.477 49.5987C168.888 49.5987 166.643 50.3907 164.741 51.9747C162.892 53.5065 161.438 55.7518 160.381 58.7107V86.0504H156.896ZM128.442 83.5922C131.401 83.5922 134.069 82.8525 136.445 81.373C138.873 79.8413 140.779 77.8089 142.15 75.2722C143.577 72.6832 144.29 69.8027 144.29 66.6346C144.29 63.4665 143.577 60.6123 142.15 58.0756C140.775 55.4865 138.873 53.4542 136.445 51.9747C134.069 50.443 131.401 49.6771 128.442 49.6771C125.484 49.6771 122.79 50.443 120.358 51.9747C117.982 53.4542 116.08 55.4865 114.653 58.0756C113.278 60.6123 112.594 63.4628 112.594 66.6346C112.594 69.8065 113.282 72.6832 114.653 75.2722C116.08 77.8089 117.982 79.8413 120.358 81.373C122.786 82.8525 125.484 83.5922 128.442 83.5922ZM128.442 86.9209C124.848 86.9209 121.576 86.0243 118.617 84.2273C115.658 82.4303 113.308 80.0019 111.563 76.9384C109.875 73.8226 109.027 70.3893 109.027 66.6384C109.027 62.8875 109.871 59.4018 111.563 56.3383C113.308 53.2748 115.658 50.8427 118.617 49.0495C121.576 47.2525 124.852 46.3558 128.442 46.3558C132.033 46.3558 135.361 47.2525 138.268 49.0495C141.227 50.8465 143.551 53.2748 145.243 56.3383C146.988 59.4018 147.858 62.8352 147.858 66.6384C147.858 70.4416 146.988 73.8226 145.243 76.9384C143.554 80.0019 141.227 82.434 138.268 84.2273C135.361 86.0243 132.089 86.9209 128.442 86.9209ZM82.4602 83.5922C85.4191 83.5922 88.0866 82.8525 90.4626 81.373C92.891 79.8413 94.7963 77.8089 96.1674 75.2722C97.5946 72.6832 98.3081 69.8027 98.3081 66.6346C98.3081 63.4665 97.5946 60.6123 96.1674 58.0756C94.7926 55.4865 92.891 53.4542 90.4626 51.9747C88.0866 50.443 85.4191 49.6771 82.4602 49.6771C79.5013 49.6771 76.9123 50.2861 74.5362 51.5003C72.2124 52.6621 70.3893 54.22 69.0668 56.1739V77.0953C70.4416 78.9446 72.3171 80.5025 74.6931 81.769C77.0692 82.9832 79.6582 83.5922 82.4602 83.5922ZM65.5811 102.294V47.1404H69.0668V51.8141C72.6047 48.1678 77.0692 46.3446 82.4602 46.3446C86.1065 46.2923 89.3792 47.189 92.2858 49.0383C95.2447 50.8353 97.5684 53.2636 99.2608 56.3271C101.006 59.3906 101.876 62.824 101.876 66.6272C101.876 70.4304 101.006 73.8114 99.2608 76.9272C97.5684 79.9907 95.2447 82.4228 92.2858 84.2161C89.3792 86.0131 86.1065 86.9097 82.4602 86.9097C79.9758 86.9097 77.5735 86.4353 75.2498 85.4826C72.9783 84.4776 70.9161 83.1588 69.0705 81.5187V102.279H65.5848L65.5811 102.294ZM28.2103 83.5922C31.6436 83.5922 34.8416 82.9571 37.8005 81.6906C40.8117 80.368 43.4268 78.5748 45.646 76.3033C47.8652 74.0318 49.58 71.3644 50.7979 68.3009C52.0644 65.2374 52.6995 61.9348 52.6995 58.3968C52.6995 54.8589 52.0644 51.5563 50.7979 48.4928C49.5837 45.4293 47.8652 42.7618 45.646 40.4904C43.4268 38.2189 40.8117 36.4481 37.8005 35.1816C34.8416 33.859 31.6473 33.2015 28.2103 33.2015C24.7732 33.2015 21.5528 33.8628 18.5416 35.1816C15.5827 36.4481 12.9937 38.2189 10.7745 40.4904C8.55536 42.7618 6.81066 45.4293 5.54417 48.4928C4.32998 51.5563 3.72102 54.8589 3.72102 58.3968C3.72102 61.9348 4.32998 65.2374 5.54417 68.3009C6.81066 71.3644 8.55536 74.0318 10.7745 76.3033C12.9937 78.5748 15.5827 80.3718 18.5416 81.6906C21.5528 82.9571 24.7769 83.5922 28.2103 83.5922ZM28.2103 86.9994C24.3024 86.9994 20.63 86.2858 17.1966 84.8587C13.8156 83.3792 10.8306 81.3469 8.24154 78.7579C5.65251 76.1165 3.62015 73.0792 2.14071 69.6458C0.713569 66.1602 0 62.4093 0 58.3931C0 54.3769 0.713569 50.6522 2.14071 47.2188C3.62015 43.7332 5.65251 40.6958 8.24154 38.1068C10.8306 35.4655 13.8156 33.4331 17.1966 32.006C20.63 30.5266 24.3024 29.7868 28.2103 29.7868C32.1181 29.7868 35.7644 30.5266 39.1454 32.006C42.5788 33.4331 45.59 35.4655 48.179 38.1068C50.768 40.6958 52.7742 43.7332 54.2014 47.2188C55.6808 50.6522 56.4205 54.3769 56.4205 58.3931C56.4205 62.4093 55.6808 66.1602 54.2014 69.6458C52.7742 73.0792 50.768 76.1165 48.179 78.7579C45.59 81.3469 42.5788 83.3792 39.1454 84.8587C35.7644 86.2858 32.1181 86.9994 28.2103 86.9994Z" fill="black"/>
<path d="M307.858 86.1289V45.7954H315.782V86.1289H307.858ZM262.896 86.1289V45.7954H270.82V49.9162C273.936 46.6398 277.978 45.0034 282.943 45.0034C286.059 45.0034 288.783 45.6647 291.106 46.9835C293.482 48.306 295.332 50.1516 296.654 52.5314C298.029 54.9074 298.713 57.6571 298.713 60.7729V86.1289H290.789V62.1178C290.789 58.9498 289.892 56.4653 288.095 54.6683C286.35 52.819 283.896 51.8963 280.724 51.8963C278.61 51.8963 276.708 52.3446 275.019 53.2449C273.331 54.1416 271.93 55.4379 270.82 57.1266V86.1289H262.896ZM229.941 86.9994C225.133 86.9994 220.96 85.9944 217.422 83.9882C213.884 81.982 211.16 79.1538 209.259 75.5075C207.357 71.8089 206.405 67.4528 206.405 62.4317V30.6536H214.725V62.4317C214.725 65.865 215.334 68.8501 216.548 71.3868C217.814 73.9235 219.585 75.8774 221.856 77.2522C224.18 78.6271 226.874 79.3108 229.941 79.3108C233.008 79.3108 235.833 78.6233 238.104 77.2522C240.376 75.8774 242.12 73.9235 243.335 71.3868C244.601 68.8501 245.236 65.865 245.236 62.4317V30.6536H253.556V62.4317C253.556 67.4491 252.577 71.8089 250.623 75.5075C248.722 79.1538 246.002 81.9782 242.46 83.9882C238.919 85.9981 234.746 86.9994 229.941 86.9994Z" fill="#638FA0"/>
<path d="M311.822 43.0831C314.533 43.0831 316.731 40.8853 316.731 38.1741C316.731 35.4629 314.533 33.265 311.822 33.265C309.111 33.265 306.913 35.4629 306.913 38.1741C306.913 40.8853 309.111 43.0831 311.822 43.0831Z" fill="#F5A158"/>
</svg>
