<svg width="31" height="31" viewBox="0 0 31 31"    xmlns="http://www.w3.org/2000/svg">
<path d="M28.6356 30.6054L18.0833 20.0382C17.2076 20.7982 16.186 21.3901 15.0184 21.814C13.8508 22.2379 12.6102 22.4498 11.2966 22.4498C8.14407 22.4498 5.47316 21.3536 3.2839 19.1612C1.09463 16.9689 0 14.3234 0 11.2249C0 8.12636 1.09463 5.48091 3.2839 3.28854C5.47316 1.09618 8.12947 0 11.2528 0C14.347 0 16.9814 1.09618 19.1561 3.28854C21.3307 5.48091 22.4181 8.12636 22.4181 11.2249C22.4181 12.4818 22.2137 13.695 21.8051 14.8642C21.3964 16.0335 20.7834 17.1297 19.9661 18.1528L30.6059 28.7199C30.8686 28.9538 31 29.2534 31 29.6188C31 29.9842 30.854 30.3131 30.5621 30.6054C30.2994 30.8685 29.9783 31 29.5989 31C29.2194 31 28.8983 30.8685 28.6356 30.6054ZM11.2528 19.819C13.6172 19.819 15.6314 18.9785 17.2952 17.2977C18.959 15.6169 19.791 13.5926 19.791 11.2249C19.791 8.85714 18.959 6.83286 17.2952 5.15205C15.6314 3.47124 13.6172 2.63083 11.2528 2.63083C8.85923 2.63083 6.82321 3.47124 5.14477 5.15205C3.46634 6.83286 2.62712 8.85714 2.62712 11.2249C2.62712 13.5926 3.46634 15.6169 5.14477 17.2977C6.82321 18.9785 8.85923 19.819 11.2528 19.819Z"  />
</svg>
